<svg xmlns="http://www.w3.org/2000/svg" width="121.304" height="89.696" viewBox="0 0 121.304 89.696"><path d="M33.476,64.771A32.393,32.393,0,0,1,21.1,67.8a18.217,18.217,0,0,1-9.347-2.106Q8.2,63.589,8.2,60.427a5.068,5.068,0,0,1,2.106-4.147,8.494,8.494,0,0,1,5.4-1.646,9.292,9.292,0,0,1,3.686.79v.395a5.012,5.012,0,0,0-2.5,4.476q0,4.473,6.846,4.476a12.907,12.907,0,0,0,8.1-2.376,7.233,7.233,0,0,0,3.094-5.944A8.45,8.45,0,0,0,32.818,50.9a40.209,40.209,0,0,0-5.792-5.016q-5.529-4.354-6.977-5.68a8.646,8.646,0,0,1-2.765-5.937q0-5.154,5.792-9.373A23.253,23.253,0,0,1,37.162,20.67q9.083,0,9.083,6.115a5.835,5.835,0,0,1-2.5,4.456,11.163,11.163,0,0,1-6.582,2.324l-.395-.8a6.635,6.635,0,0,0,2.5-4.937q0-4-5.4-4a10.348,10.348,0,0,0-6.319,1.85,5.572,5.572,0,0,0-2.5,4.621c0,1.843,1.007,3.831,3.028,5.68q3.821,2.9,7.635,5.812,6.842,5.549,6.846,10.571,0,3.831-3.818,8.057,10.4-1.451,28.04-30.937a1.713,1.713,0,0,1,.527,1.448q0,4.078-7.175,13.757T47.3,58.834a27.105,27.105,0,0,1-13.823,5.924Z" transform="translate(-2.803 -7.065)" fill="#fff"/><g transform="translate(49.005 47.359)"><path d="M74.5,89.331l4.845-15.9a1,1,0,0,1,.79-.737l2.106-.474h.263c.283,0,.421.171.421.507a1.189,1.189,0,0,1-.053.336L79.61,83.7a62.732,62.732,0,0,1,5.74-8.794q2.528-2.952,4.687-2.949,2.844,0,2.844,2.528,0,1.372-2.37,9.32,7.109-11.581,11.111-11.585,2.636,0,2.633,2.982a11.442,11.442,0,0,1-.79,3.456q-1.58,4.552-1.632,4.654a18.208,18.208,0,0,0-.948,3.87,1.021,1.021,0,0,0,1.158,1.152c.875,0,2.231-1.053,4.055-3.159q2.32-2.636,7.056-9.32a3.17,3.17,0,0,1,.053.737q0,1.214-2.633,4.739a60.409,60.409,0,0,1-5.582,6.74q-2.478,2.37-4.739,2.37a2.513,2.513,0,0,1-1.922-.816,2.863,2.863,0,0,1-.764-2.027,23.62,23.62,0,0,1,1.79-6.951,34.494,34.494,0,0,0,1.79-5.529c0-.7-.369-1.053-1.106-1.053q-2.37,0-8.267,9.775-.9,1.481-2.37,4.542c-.527,1.093-.981,1.672-1.369,1.744l-1.79.316h-.158c-.388,0-.579-.086-.579-.263a1.622,1.622,0,0,1,.158-.737l3.475-12.677a8.465,8.465,0,0,0,.369-1.8c0-.7-.283-1.053-.843-1.053q-2.261,0-7.688,9.353c-.77,1.336-1.613,3.015-2.528,5.016-.527,1.165-.928,1.757-1.211,1.8l-2.264.369h-.158a.328.328,0,0,1-.369-.369,4.141,4.141,0,0,1,.053-.737Z" transform="translate(-74.45 -71.953)" fill="#fff"/><path d="M128.894,105.282l-.316-.105a3.059,3.059,0,0,1-.369-1.632,10.561,10.561,0,0,1,1.9-6.161,20.176,20.176,0,0,1,5.845-5.16q.207-3.475,2.791-10.426-4.581,8.323-8.478,8.32a3.731,3.731,0,0,1-3.028-1.448,5.844,5.844,0,0,1-1.185-3.818q0-4.848,4.371-9a12.667,12.667,0,0,1,8.847-3.9c3.159,0,4.687.494,4.687,1.474a37.91,37.91,0,0,1-1.685,6.74l-3.159,10.426q5.213-3.633,13.375-14.8a3.27,3.27,0,0,1,.053.685q0,1.106-1.79,3.423-7.059,9.113-11.9,12.322Q136.585,102.067,128.894,105.282ZM141.163,74a2.612,2.612,0,0,0-2.152-.843q-2.251,0-5.088,3.423-4.512,5.42-4.509,9.478,0,2.261,1.731,2.264c1.152,0,2.639-1.178,4.351-3.528A50.961,50.961,0,0,0,141.156,74Zm-10.321,28.909q4-2.054,5.108-9.162-5.322,3.209-5.318,7.688A5.852,5.852,0,0,0,130.842,102.913Z" transform="translate(-92.086 -71.95)" fill="#fff"/></g><rect width="5" height="29" fill="#fff"/><rect width="5" height="29" transform="translate(29) rotate(90)" fill="#fff"/><g transform="translate(92.342 60.734)"><rect width="28.962" height="5.266" transform="translate(0 23.696)" fill="#fff"/><rect width="5.266" height="28.962" transform="translate(23.696)" fill="#fff"/></g></svg>